<svg id="f6caa771-bba5-4fc3-92fa-9238b367a293" data-name="Layer 1" xmlns="http://www.w3.org/2000/svg" width="942.59449" height="696.95179" viewBox="0 0 942.59449 696.95179"><path d="M1038.32278,729.51835c-2.82873-22.74619-16.92559-45.1578-38.61858-52.56a105.60774,105.60774,0,0,1-.00523,72.50685c-3.33338,9.01667-7.97975,18.69829-4.84426,27.78572,1.95086,5.65446,6.72337,9.98061,12.05808,12.68564,5.335,2.705,11.25582,3.9943,17.1025,5.25778l1.15066.95166C1034.44747,775.18781,1041.1515,752.26455,1038.32278,729.51835Z" transform="translate(-128.70276 -101.5241)" fill="#f0f0f0"/><path d="M999.48894,677.38841a90.26621,90.26621,0,0,1,22.44,50.80179,38.87161,38.87161,0,0,1-.44216,12.17122,22.29463,22.29463,0,0,1-5.545,10.34073c-2.49924,2.74591-5.37367,5.26526-7.1619,8.57089a13.6511,13.6511,0,0,0-.66692,11.14422c1.57882,4.52832,4.69058,8.21929,7.85906,11.723,3.518,3.8902,7.23371,7.87517,8.72912,13.03254.18119.62489,1.14021.3072.9593-.31674-2.60176-8.97295-11.31212-14.06976-15.46607-22.15158-1.93831-3.77112-2.75189-8.14923-.93476-12.13,1.589-3.481,4.55093-6.08155,7.10549-8.84a23.79012,23.79012,0,0,0,5.7985-9.909,35.936,35.936,0,0,0,.90848-12.10932,87.57461,87.57461,0,0,0-6.39592-26.61311,91.86684,91.86684,0,0,0-16.51884-26.4723c-.43194-.48368-1.09757.27715-.66845.75767Z" transform="translate(-128.70276 -101.5241)" fill="#fff"/><path d="M1021.65705,722.07663A13.54281,13.54281,0,0,0,1031.9658,707.89c-.05147-.648-1.06077-.5984-1.00923.05041a12.54036,12.54036,0,0,1-9.61626,13.17689c-.63243.15036-.31207,1.10879.31674.95929Z" transform="translate(-128.70276 -101.5241)" fill="#fff"/><path d="M1017.39243,749.47676a26.10266,26.10266,0,0,1-11.6564-15.03322c-.1834-.62422-1.14247-.30673-.9593.31674a27.15071,27.15071,0,0,0,12.16134,15.61877c.56019.33229,1.0115-.5718.45436-.90229Z" transform="translate(-128.70276 -101.5241)" fill="#fff"/><path d="M1011.78255,694.35854a7.66589,7.66589,0,0,1-7.26467-.36878c-.55569-.33923-1.00643.56527-.45435.90229a8.59023,8.59023,0,0,0,8.03576.42578.52209.52209,0,0,0,.32128-.638.50768.50768,0,0,0-.638-.32127Z" transform="translate(-128.70276 -101.5241)" fill="#fff"/><path d="M933.58091,717.58579c.341.22169.68192.44338,1.0233.6736a100.95473,100.95473,0,0,1,12.9083,10.07787c.31557.28138.63114.57129.938.86115a106.42952,106.42952,0,0,1,23.1143,31.64061,103.357,103.357,0,0,1,5.66149,14.64793c2.08907,6.93177,3.80263,14.6138,7.9379,20.28371a17.73016,17.73016,0,0,0,1.38134,1.70524h37.37021c.08493-.04262.17028-.07676.25562-.11938l1.49208.06822c-.06-.26431-.12781-.53715-.18776-.80146-.03414-.15346-.0766-.30693-.11074-.46039-.0254-.10231-.05121-.20467-.06828-.29845-.00832-.03409-.01706-.06817-.02539-.09378-.01707-.09377-.04288-.17906-.06-.2643q-.56265-2.28926-1.15944-4.57855c0-.00853,0-.00853-.00833-.01707a151.97089,151.97089,0,0,0-12.78923-33.576c-.17069-.31546-.341-.63946-.52873-.95492a98.62432,98.62432,0,0,0-8.85879-13.43724,87.192,87.192,0,0,0-5.80636-6.64186A72.50389,72.50389,0,0,0,977.91693,722.71c-13.40331-7.0767-28.92066-9.788-43.24486-5.46525C934.30571,717.35562,933.94726,717.46641,933.58091,717.58579Z" transform="translate(-128.70276 -101.5241)" fill="#f0f0f0"/><path d="M933.66492,718.06009a90.26633,90.26633,0,0,1,48.5033,27.05193,38.87189,38.87189,0,0,1,6.97487,9.98426,22.29466,22.29466,0,0,1,1.79849,11.59494c-.34227,3.69717-1.12052,7.43934-.5581,11.15533a13.65108,13.65108,0,0,0,6.17709,9.29957c3.987,2.665,8.69375,3.73859,13.33307,4.62847,5.15109.988,10.51711,1.93268,14.81621,5.15021.5209.38985,1.09535-.4412.57524-.83046-7.47969-5.598-17.50306-4.42324-25.68557-8.37515-3.81811-1.844-7.10363-4.84988-8.04947-9.12237-.82709-3.73611-.02786-7.59575.351-11.33622a23.79009,23.79009,0,0,0-1.33611-11.40288,35.93625,35.93625,0,0,0-6.56528-10.21558A87.57411,87.57411,0,0,0,962.87,728.24385a91.86689,91.86689,0,0,0-29.12752-11.19117c-.63609-.12614-.70949.8821-.07756,1.00741Z" transform="translate(-128.70276 -101.5241)" fill="#fff"/><path d="M978.27031,740.3944a13.54281,13.54281,0,0,0-.31035-17.53378c-.4312-.48636-1.20724.16087-.77546.64788a12.54033,12.54033,0,0,1,.25535,16.31066c-.41443.50082.4184,1.07319.83046.57524Z" transform="translate(-128.70276 -101.5241)" fill="#fff"/><path d="M991.362,764.83946a26.10265,26.10265,0,0,1-18.358-4.98522c-.52226-.388-1.09687.44294-.57524.83046a27.15069,27.15069,0,0,0,19.11373,5.14875c.64734-.072.46336-1.06555-.18047-.994Z" transform="translate(-128.70276 -101.5241)" fill="#fff"/><path d="M953.69787,724.20818a7.66588,7.66588,0,0,1-6.02246,4.07939c-.64793.06371-.46325,1.05728.18047.994a8.59025,8.59025,0,0,0,6.67245-4.49812.52209.52209,0,0,0-.12761-.70286.50767.50767,0,0,0-.70285.12761Z" transform="translate(-128.70276 -101.5241)" fill="#fff"/><path d="M268.69242,301.47448c-33.56665,17.70441-60.01468,52.66209-58.77037,90.59077a174.84809,174.84809,0,0,1,112.28358-42.464c15.91535-.11976,33.62952,1.40419,45.8652-8.77438,7.61347-6.3332,11.51715-16.2578,12.58113-26.10339,1.06378-9.8461-.40792-19.76994-1.87617-29.56392l.79968-2.33931C341.68391,280.7239,302.25908,283.77007,268.69242,301.47448Z" transform="translate(-128.70276 -101.5241)" fill="#f0f0f0"/><path d="M210.71417,392.14666a149.4481,149.4481,0,0,1,65.5245-64.50756,64.35743,64.35743,0,0,1,19.10675-6.44479,36.91192,36.91192,0,0,1,19.2612,2.52939c5.71616,2.26173,11.30125,5.23718,17.46766,6.07a22.60125,22.60125,0,0,0,17.64805-5.49516c6.08751-5.09742,9.9804-12.07819,13.55008-19.0371,3.96345-7.72653,7.95781-15.81478,15.06831-21.15153.86153-.64662-.19218-1.94562-1.05242-1.3-12.371,9.285-15.16146,25.759-25.24331,36.92567-4.70438,5.21057-11.00753,9.035-18.23643,8.55289-6.32136-.42157-12.08338-3.485-17.85132-5.825a39.38769,39.38769,0,0,0-18.74115-3.17492A59.497,59.497,0,0,0,277.932,324.975a144.99114,144.99114,0,0,0-37.46522,25.49349,152.0982,152.0982,0,0,0-31.3175,41.08686c-.496.95221,1.07211,1.53731,1.56485.59132Z" transform="translate(-128.70276 -101.5241)" fill="#fff"/><path d="M266.93078,331.64132a22.422,22.422,0,0,0-28.00718-7.65358c-.97323.45926-.30529,1.99318.66924,1.53332a20.76224,20.76224,0,0,1,26.038,7.17267c.6033.89127,1.89983-.16624,1.3-1.05241Z" transform="translate(-128.70276 -101.5241)" fill="#fff"/><path d="M311.85934,322.1952a43.21652,43.21652,0,0,1-16.45176,26.85649c-.85921.64965.19423,1.94885,1.05241,1.3a44.95171,44.95171,0,0,0,17.06274-27.98142c.18643-1.06212-1.478-1.23141-1.66339-.175Z" transform="translate(-128.70276 -101.5241)" fill="#fff"/><path d="M229.79207,363.16883a12.69191,12.69191,0,0,1,3.68434,11.46572c-.1998,1.05924,1.46489,1.2274,1.66339.17506a14.22235,14.22235,0,0,0-4.04775-12.69319.86437.86437,0,0,0-1.17619-.12378.84051.84051,0,0,0-.12379,1.17619Z" transform="translate(-128.70276 -101.5241)" fill="#fff"/><path d="M311.56862,470.66226c.14357-.65786.28714-1.31571.44368-1.97921a167.14594,167.14594,0,0,1,8.04483-25.89245c.25088-.6535.515-1.312.78411-1.95691a176.20873,176.20873,0,0,1,35.45748-54.3277,171.12039,171.12039,0,0,1,19.36675-17.34737c9.51049-7.29545,20.40274-14.44886,26.76059-24.17378a29.357,29.357,0,0,0,1.83149-3.13794L382.3673,283.97723c-.11575-.10655-.21861-.21871-.3346-.32591l-.76836-2.35052c-.37418.24766-.75694.51257-1.13112.76023-.21765.14275-.43043.29841-.64808.44117-.14355.09925-.28695.19918-.42216.28054-.04791.03286-.09557.06637-.13034.09426-.13522.08136-.25218.1713-.37418.24766q-3.21543,2.21226-6.41094,4.47741c-.01322.005-.01322.005-.02156.02289-16.20281,11.54768-31.58392,24.54949-44.50263,39.47252-.38853.44911-.79052.90257-1.169,1.37811a163.287,163.287,0,0,0-15.619,21.58939,144.35516,144.35516,0,0,0-6.88408,12.882,120.0397,120.0397,0,0,0-10.418,36.05708c-3.10741,24.901,1.78355,50.5186,16.86822,70.1682C310.78762,469.67469,311.16915,470.16486,311.56862,470.66226Z" transform="translate(-128.70276 -101.5241)" fill="#f0f0f0"/><path d="M312.25389,470.25433a149.44807,149.44807,0,0,1,13.47963-90.95595A64.35713,64.35713,0,0,1,337.109,362.649a36.91185,36.91185,0,0,1,16.90185-9.577c5.92575-1.63566,12.17656-2.62254,17.60151-5.67018a22.60123,22.60123,0,0,0,10.78252-15.01292c1.79154-7.73511.69688-15.65265-.64267-23.35814-1.48732-8.55548-3.16772-17.41838-.70348-25.96048.29858-1.035-1.32484-1.43776-1.623-.40433-4.28736,14.86178,3.40312,29.69536,2.07643,44.68129-.61906,6.99271-3.34921,13.84123-9.41134,17.8086-5.30107,3.46929-11.74608,4.49248-17.76034,6.09677a39.38765,39.38765,0,0,0-16.87528,8.74848,59.4966,59.4966,0,0,0-11.97361,16.15062,144.99079,144.99079,0,0,0-14.565,42.91177,152.09809,152.09809,0,0,0-.26814,51.66086c.17727,1.0589,1.78158.582,1.60546-.47Z" transform="translate(-128.70276 -101.5241)" fill="#fff"/><path d="M320.71131,388.09792a22.422,22.422,0,0,0-26.97015,10.7513c-.50057.95264.95628,1.77525,1.45751.82134a20.76224,20.76224,0,0,1,25.1083-9.94967c1.0183.3484,1.41681-1.27657.40434-1.623Z" transform="translate(-128.70276 -101.5241)" fill="#fff"/><path d="M350.897,353.50562a43.21657,43.21657,0,0,1,3.03366,31.3485c-.29491,1.036,1.32842,1.43911,1.623.40434a44.95168,44.95168,0,0,0-3.2231-32.61454c-.49062-.96029-1.92148-.09337-1.43352.8617Z" transform="translate(-128.70276 -101.5241)" fill="#fff"/><path d="M310.03987,435.63094a12.6919,12.6919,0,0,1,9.84489,6.93651c.4782.966,1.90861.098,1.43352-.8617A14.22234,14.22234,0,0,0,310.4442,434.008a.86439.86439,0,0,0-1.01365.60932.84052.84052,0,0,0,.60932,1.01365Z" transform="translate(-128.70276 -101.5241)" fill="#fff"/><path d="M640.984,241.90322h-3.24576V152.98664a51.46249,51.46249,0,0,0-51.46244-51.46254H397.89394a51.46249,51.46249,0,0,0-51.46259,51.46238V640.78987a51.4625,51.4625,0,0,0,51.46244,51.46254H586.27558a51.4625,51.4625,0,0,0,51.46264-51.46234V305.19555H640.984Z" transform="translate(-128.70276 -101.5241)" fill="#3f3d56"/><path d="M588.35216,114.91287H563.7621A18.25879,18.25879,0,0,1,546.857,140.06749H438.93543a18.25874,18.25874,0,0,1-16.90513-25.15465H399.06312a38.43163,38.43163,0,0,0-38.43165,38.43157V640.432a38.43163,38.43163,0,0,0,38.4316,38.43165H588.35216a38.43163,38.43163,0,0,0,38.43165-38.4316h0V153.34444A38.43159,38.43159,0,0,0,588.35216,114.91287Z" transform="translate(-128.70276 -101.5241)" fill="#fff"/><path d="M493.76306,400.69172A113.40455,113.40455,0,1,1,607.1676,287.28742,113.53278,113.53278,0,0,1,493.76306,400.69172Zm0-224.80909A111.40455,111.40455,0,1,0,605.1676,287.28742,111.53075,111.53075,0,0,0,493.76306,175.88263Z" transform="translate(-128.70276 -101.5241)" fill="#3f3d56"/><path d="M480.69243,297.08445c-3.91359-11.60023-17.88326-18.69859-29.55989-15.02029-10.09768,3.18081-16.96581,13.9475-16.41754,24.39919-3.37687-12.76567-16.369-22.7491-29.69392-21.8136-14.97494,1.05134-27.61812,15.697-26.47247,30.66467a17.40925,17.40925,0,0,0-33.86923-2.88038l.00463-.27724c-2.38259-1.33891-5.60925,1.00735-5.752,3.73694-.1427,2.72952,2.00013,5.16107,4.5127,6.23754,2.512,1.07646,5.33367,1.09,8.06694,1.08657q51.16261-.06585,102.32638-.13179c7.92308-.01019,16.65672-.32108,22.48146-5.69295C481.70289,312.42805,483.03341,304.02357,480.69243,297.08445Z" transform="translate(-128.70276 -101.5241)" fill="#e4e4e4"/><path d="M562.23382,350.04531a12.81037,12.81037,0,0,0-15.39512-7.82272c-5.259,1.65659-8.836,7.264-8.55043,12.70736-1.75871-6.6485-8.52516-11.848-15.46492-11.36076-7.79911.54755-14.38382,8.17515-13.78716,15.97049a9.06693,9.06693,0,0,0-17.63946-1.50013l.00241-.14439c-1.24088-.69731-2.92136.52464-2.99568,1.94624a3.60121,3.60121,0,0,0,2.35026,3.24858,10.56542,10.56542,0,0,0,4.20135.5659q26.64606-.03431,53.29271-.06864c4.12643-.0053,8.675-.16722,11.70859-2.96495C562.76008,358.03643,563.453,353.65929,562.23382,350.04531Z" transform="translate(-128.70276 -101.5241)" fill="#e4e4e4"/><circle cx="387.54126" cy="120.68685" r="39.04574" fill="#ff6582"/><path d="M623.86016,235.55782c-3.91359-11.60023-17.88326-18.69859-29.55989-15.02028-10.09768,3.1808-16.96581,13.9475-16.41754,24.39918-3.37687-12.76566-16.369-22.7491-29.69392-21.8136-14.97493,1.05134-27.61812,15.697-26.47247,30.66467a17.40925,17.40925,0,0,0-33.86922-2.88038l.00462-.27724c-2.38259-1.3389-5.60925,1.00736-5.752,3.737-.1427,2.72951,2.00013,5.16106,4.5127,6.23753,2.512,1.07647,5.33367,1.09,8.06694,1.08658q51.16261-.06587,102.32638-.1318c7.92308-.01018,16.65672-.32108,22.48146-5.69294C624.87062,250.90142,626.20115,242.49694,623.86016,235.55782Z" transform="translate(-128.70276 -101.5241)" fill="#e4e4e4"/><path d="M547.5969,296.84591l7.52091-6.01527c-5.84266-.6446-8.24329,2.54185-9.22578,5.064-4.56451-1.89536-9.53353.58861-9.53353.58861l15.04792,5.46293A11.38706,11.38706,0,0,0,547.5969,296.84591Z" transform="translate(-128.70276 -101.5241)" fill="#3f3d56"/><path d="M450.57414,356.00613l7.52091-6.01527c-5.84266-.6446-8.24329,2.54185-9.22578,5.064-4.56451-1.89536-9.53353.58861-9.53353.58861l15.04792,5.46293A11.38706,11.38706,0,0,0,450.57414,356.00613Z" transform="translate(-128.70276 -101.5241)" fill="#3f3d56"/><path d="M434.00928,254.25056l7.52091-6.01528c-5.84266-.6446-8.24329,2.54185-9.22578,5.064-4.56451-1.89536-9.53354.58861-9.53354.58861l15.04792,5.46293A11.38694,11.38694,0,0,0,434.00928,254.25056Z" transform="translate(-128.70276 -101.5241)" fill="#3f3d56"/><ellipse cx="359.14436" cy="495.76264" rx="66.25945" ry="7.09923" fill="#f0f0f0"/><path d="M162.48545,482.97741H473.28626a33.784,33.784,0,0,1,11.26089,65.63549v23.32561l-21.3957-21.39571h-300.666a33.7827,33.7827,0,0,1,0-67.56539Z" transform="translate(-128.70276 -101.5241)" fill="#1890ff"/><path d="M177.12462,508.87748H450.76446a2.25218,2.25218,0,0,0,0-4.50436H177.12462a2.25218,2.25218,0,1,0,0,4.50436Z" transform="translate(-128.70276 -101.5241)" fill="#fff"/><path d="M177.12462,525.76882H450.76446a2.25218,2.25218,0,0,0,0-4.50436H177.12462a2.25218,2.25218,0,0,0,0,4.50436Z" transform="translate(-128.70276 -101.5241)" fill="#fff"/><path d="M852.39441,598.89425a11.75935,11.75935,0,0,0,3.23233-17.7394L869.29882,474.927l-25.55039,1.07282-5.405,104.08113a11.823,11.823,0,0,0,14.051,18.81326Z" transform="translate(-128.70276 -101.5241)" fill="#ffb6b6"/><polygon points="842.598 373.388 845.881 427.702 823.714 486.246 813.122 470.587 823.217 413.635 820.417 377.199 842.598 373.388" fill="#ffb6b6"/><polygon points="810.859 540.853 813.579 680.473 801.645 682.321 775.848 539.419 810.859 540.853" fill="#ffb6b6"/><polygon points="733.457 547.599 752.137 685.991 764.213 685.991 767.836 540.824 733.457 547.599" fill="#ffb6b6"/><circle cx="768.60577" cy="277.55208" r="24.83603" fill="#ffb6b6"/><path d="M918.20451,389.59961c.84539,1.85983,2.17381.6968,3.72138-.57225,2.8873-2.36767,4.56914-6.0679,5.53511-9.59428a35.99254,35.99254,0,0,0,.44083-17.99237,28.57678,28.57678,0,0,0-9.35438-15.2404,19.13239,19.13239,0,0,0-3.46319-2.31029c-4.16255-2.11387-9.07891-2.20538-13.69678-1.51941a47.80757,47.80757,0,0,0-17.157,6.15558,18.46006,18.46006,0,0,0-6.11026,5.20058,8.20147,8.20147,0,0,0-1.10718,7.67294,1.30641,1.30641,0,0,0,.39436.56909,1.4956,1.4956,0,0,0,1.08257.12026,40.6553,40.6553,0,0,1,11.30293.03584,3.36277,3.36277,0,0,1,2.66524,1.34731,18.42739,18.42739,0,0,1,.49535,2.23779c.8479,2.27049,4.59855,1.71335,6.0099,3.6837.88684,1.2381.49484,2.997,1.11406,4.38843.99308,2.23152,4.0189,2.586,6.4311,2.20231s5.01929-1.14388,7.1849-.01427c2.086,1.08809,2.99493,3.56128,3.52019,5.85463C917.72363,384.05149,917.308,387.62737,918.20451,389.59961Z" transform="translate(-128.70276 -101.5241)" fill="#2f2e41"/><polygon points="813.894 462.975 824.316 487.343 813.894 520.13 813.894 554.067 773.982 554.307 773.1 512.573 767.73 554.307 727.091 554.307 719.569 470.657 730.36 450.861 813.894 462.975" fill="#2f2e41"/><path d="M889.33138,412.04161l-2.93632,5.44085s-25.32665,4.93438-38.12342,18.873l17.17527,35.06969L849.542,572.991l93.78105-6.25207,3.32757-78.19824,14.11177-54.69357S936.29764,417.068,925.7432,418.83237l-3.69394-6.79076Z" transform="translate(-128.70276 -101.5241)" fill="#1890ff"/><path d="M872.37721,440.00781l-24.10557-3.65235s-6.59918,38.706-6.5447,47.54351l29.09428,4.64169Z" transform="translate(-128.70276 -101.5241)" fill="#1890ff"/><path d="M949.24286,436.31675l11.51956-2.46966s4.44291,14.10247,11.77593,47.31159L942.597,491.60778Z" transform="translate(-128.70276 -101.5241)" fill="#1890ff"/><path d="M895.258,796.59759l-43.3714-.00161v-.54858a16.88228,16.88228,0,0,1,16.88136-16.88109h.00107l26.48977.00108Z" transform="translate(-128.70276 -101.5241)" fill="#2f2e41"/><path d="M947.53147,789.96142l-42.8607,6.63617-.084-.54212a16.88227,16.88227,0,0,1,14.09893-19.26582l.001-.00016,26.17787-4.05306Z" transform="translate(-128.70276 -101.5241)" fill="#2f2e41"/><path d="M1070.29724,798.4759h-381a1,1,0,0,1,0-2h381a1,1,0,0,1,0,2Z" transform="translate(-128.70276 -101.5241)" fill="#cacaca"/></svg>