<svg width="369" height="332" viewBox="0 0 369 332" fill="none" xmlns="http://www.w3.org/2000/svg">
<path d="M0.680323 27.1999L0.619386 54.3999L92.5242 97.0059L184.429 139.612L237.984 115.032C267.414 101.598 292.14 90.2531 293.04 89.9551C294.342 89.358 294.525 96.7584 294.38 161.458L294.219 233.558L318.719 233.613L343.219 233.668L343.466 123.068C343.603 62.2683 343.414 12.7678 343.013 12.9669C342.513 13.1657 306.776 29.5857 263.431 49.3886L184.65 85.5122L108.929 50.3425C67.2721 30.9491 25.915 11.7564 17.0242 7.63651L0.741261 1.84655e-05L0.680323 27.1999Z" fill="#42A8FB"/>
<path d="M25.2355 225.855L25 330.955L196.5 331.339L367.999 331.724L368.054 307.224L368.109 282.724L221.41 282.195L74.6108 281.566L74.4654 212.566L74.4202 143.465L50.6446 132.512C37.6579 126.583 26.6694 121.458 26.2698 121.257C25.7702 121.056 25.3647 168.155 25.2355 225.855Z" fill="black"/>
</svg>
