<svg width="368" height="331" viewBox="0 0 368 331" fill="none" xmlns="http://www.w3.org/2000/svg">
<path d="M0 27.3V54.5L92 96.9L184 139.3L237.5 114.6C266.9 101.1 291.6 89.7 292.5 89.4C293.8 88.8 294 96.2 294 160.9V233H318.5H343V122.4C343 61.6 342.7 12.1 342.3 12.3C341.8 12.5 306.1 29 262.8 48.9L184.1 85.2L108.3 50.2C66.6 30.9 25.2 11.8 16.3 7.70001L0 0.100021V27.3Z" fill="#42A8FB"/>
<path d="M25 225.9V331H196.5H368V306.5V282L221.3 281.8L74.5 281.5L74.2 212.5L74 143.4L50.2 132.5C37.2 126.6 26.2 121.5 25.8 121.3C25.3 121.1 25 168.2 25 225.9Z" fill="#808080"/>
</svg>
